<svg id="visual" viewBox="0 0 900 600" width="900" height="600" xmlns="http://www.w3.org/2000/svg" xmlns:xlink="http://www.w3.org/1999/xlink" version="1.1"><rect x="0" y="0" width="900" height="600" fill="#08081a"></rect><defs><linearGradient id="grad1_0" x1="33.3%" y1="100%" x2="100%" y2="0%"><stop offset="20%" stop-color="#08081a" stop-opacity="1"></stop><stop offset="80%" stop-color="#08081a" stop-opacity="1"></stop></linearGradient></defs><defs><linearGradient id="grad2_0" x1="0%" y1="100%" x2="66.7%" y2="0%"><stop offset="20%" stop-color="#08081a" stop-opacity="1"></stop><stop offset="80%" stop-color="#08081a" stop-opacity="1"></stop></linearGradient></defs><g transform="translate(900, 600)"><path d="M-513.8 0C-453.4 -62.2 -392.9 -124.4 -357.7 -206.5C-322.4 -288.6 -312.3 -390.4 -256.9 -445C-201.5 -499.5 -100.7 -506.6 0 -513.8L0 0Z" fill="#040414"></path></g><g transform="translate(0, 0)"><path d="M513.8 0C473.7 74 433.6 147.9 395.8 228.5C358 309.1 322.5 396.3 256.9 445C191.3 493.6 95.7 503.7 0 513.8L0 0Z" fill="#040414"></path></g></svg>