<svg id="visual" viewBox="0 0 900 600" width="900" height="600" xmlns="http://www.w3.org/2000/svg" xmlns:xlink="http://www.w3.org/1999/xlink" version="1.1"><rect x="0" y="0" width="900" height="600" fill="#08081a"></rect><defs><linearGradient id="grad1_0" x1="33.3%" y1="0%" x2="100%" y2="100%"><stop offset="20%" stop-color="#08081a" stop-opacity="1"></stop><stop offset="80%" stop-color="#08081a" stop-opacity="1"></stop></linearGradient></defs><defs><linearGradient id="grad2_0" x1="0%" y1="0%" x2="66.7%" y2="100%"><stop offset="20%" stop-color="#08081a" stop-opacity="1"></stop><stop offset="80%" stop-color="#08081a" stop-opacity="1"></stop></linearGradient></defs><g transform="translate(900, 0)"><path d="M0 513.8C-62.2 453.4 -124.4 392.9 -206.5 357.7C-288.6 322.4 -390.4 312.3 -445 256.9C-499.5 201.5 -506.6 100.7 -513.8 0L0 0Z" fill="#040414"></path></g><g transform="translate(0, 600)"><path d="M0 -513.8C74 -473.7 147.9 -433.6 228.5 -395.8C309.1 -358 396.3 -322.5 445 -256.9C493.6 -191.3 503.7 -95.7 513.8 0L0 0Z" fill="#040414"></path></g></svg>