<svg id="visual" viewBox="0 0 900 600" width="900" height="600" xmlns="http://www.w3.org/2000/svg" xmlns:xlink="http://www.w3.org/1999/xlink" version="1.1"><path d="M0 49L25 49C50 49 100 49 150 49C200 49 250 49 300 49C350 49 400 49 450 49C500 49 550 49 600 48C650 47 700 45 750 45C800 45 850 47 875 48L900 49L900 0L875 0C850 0 800 0 750 0C700 0 650 0 600 0C550 0 500 0 450 0C400 0 350 0 300 0C250 0 200 0 150 0C100 0 50 0 25 0L0 0Z" fill="#040418"></path><path d="M0 109L25 108C50 107 100 105 150 104C200 103 250 103 300 104C350 105 400 107 450 109C500 111 550 113 600 112C650 111 700 107 750 105C800 103 850 103 875 103L900 103L900 47L875 46C850 45 800 43 750 43C700 43 650 45 600 46C550 47 500 47 450 47C400 47 350 47 300 47C250 47 200 47 150 47C100 47 50 47 25 47L0 47Z" fill="#050519"></path><path d="M0 151L25 149C50 147 100 143 150 141C200 139 250 139 300 141C350 143 400 147 450 149C500 151 550 151 600 149C650 147 700 143 750 142C800 141 850 143 875 144L900 145L900 101L875 101C850 101 800 101 750 103C700 105 650 109 600 110C550 111 500 109 450 107C400 105 350 103 300 102C250 101 200 101 150 102C100 103 50 105 25 106L0 107Z" fill="#070619"></path><path d="M0 235L25 231C50 227 100 219 150 217C200 215 250 219 300 223C350 227 400 231 450 231C500 231 550 227 600 223C650 219 700 215 750 215C800 215 850 219 875 221L900 223L900 143L875 142C850 141 800 139 750 140C700 141 650 145 600 147C550 149 500 149 450 147C400 145 350 141 300 139C250 137 200 137 150 139C100 141 50 145 25 147L0 149Z" fill="#08081a"></path><path d="M0 283L25 280C50 277 100 271 150 270C200 269 250 273 300 276C350 279 400 281 450 280C500 279 550 275 600 272C650 269 700 267 750 267C800 267 850 269 875 270L900 271L900 221L875 219C850 217 800 213 750 213C700 213 650 217 600 221C550 225 500 229 450 229C400 229 350 225 300 221C250 217 200 213 150 215C100 217 50 225 25 229L0 233Z" fill="#08081a"></path><path d="M0 415L25 411C50 407 100 399 150 398C200 397 250 403 300 403C350 403 400 397 450 394C500 391 550 391 600 390C650 389 700 387 750 386C800 385 850 385 875 385L900 385L900 269L875 268C850 267 800 265 750 265C700 265 650 267 600 270C550 273 500 277 450 278C400 279 350 277 300 274C250 271 200 267 150 268C100 269 50 275 25 278L0 281Z" fill="#08081a"></path><path d="M0 451L25 447C50 443 100 435 150 434C200 433 250 439 300 439C350 439 400 433 450 430C500 427 550 427 600 426C650 425 700 423 750 422C800 421 850 421 875 421L900 421L900 383L875 383C850 383 800 383 750 384C700 385 650 387 600 388C550 389 500 389 450 392C400 395 350 401 300 401C250 401 200 395 150 396C100 397 50 405 25 409L0 413Z" fill="#070619"></path><path d="M0 481L25 477C50 473 100 465 150 464C200 463 250 469 300 469C350 469 400 463 450 460C500 457 550 457 600 456C650 455 700 453 750 452C800 451 850 451 875 451L900 451L900 419L875 419C850 419 800 419 750 420C700 421 650 423 600 424C550 425 500 425 450 428C400 431 350 437 300 437C250 437 200 431 150 432C100 433 50 441 25 445L0 449Z" fill="#050519"></path><path d="M0 601L25 601C50 601 100 601 150 601C200 601 250 601 300 601C350 601 400 601 450 601C500 601 550 601 600 601C650 601 700 601 750 601C800 601 850 601 875 601L900 601L900 449L875 449C850 449 800 449 750 450C700 451 650 453 600 454C550 455 500 455 450 458C400 461 350 467 300 467C250 467 200 461 150 462C100 463 50 471 25 475L0 479Z" fill="#040418"></path></svg>