<svg id="visual" viewBox="0 0 900 600" width="900" height="600" xmlns="http://www.w3.org/2000/svg" xmlns:xlink="http://www.w3.org/1999/xlink" version="1.1"><path d="M0 241L21.5 234.3C43 227.7 86 214.3 128.8 217.2C171.7 220 214.3 239 257.2 240.8C300 242.7 343 227.3 385.8 225C428.7 222.7 471.3 233.3 514.2 229.2C557 225 600 206 642.8 207.7C685.7 209.3 728.3 231.7 771.2 242.8C814 254 857 254 878.5 254L900 254L900 0L878.5 0C857 0 814 0 771.2 0C728.3 0 685.7 0 642.8 0C600 0 557 0 514.2 0C471.3 0 428.7 0 385.8 0C343 0 300 0 257.2 0C214.3 0 171.7 0 128.8 0C86 0 43 0 21.5 0L0 0Z" fill="#040414"></path><path d="M0 163L21.5 163.8C43 164.7 86 166.3 128.8 162.2C171.7 158 214.3 148 257.2 147.5C300 147 343 156 385.8 165.2C428.7 174.3 471.3 183.7 514.2 186.5C557 189.3 600 185.7 642.8 183.8C685.7 182 728.3 182 771.2 179C814 176 857 170 878.5 167L900 164L900 0L878.5 0C857 0 814 0 771.2 0C728.3 0 685.7 0 642.8 0C600 0 557 0 514.2 0C471.3 0 428.7 0 385.8 0C343 0 300 0 257.2 0C214.3 0 171.7 0 128.8 0C86 0 43 0 21.5 0L0 0Z" fill="#050516"></path><path d="M0 157L21.5 149.8C43 142.7 86 128.3 128.8 118C171.7 107.7 214.3 101.3 257.2 102.8C300 104.3 343 113.7 385.8 119C428.7 124.3 471.3 125.7 514.2 121.5C557 117.3 600 107.7 642.8 105.7C685.7 103.7 728.3 109.3 771.2 113.7C814 118 857 121 878.5 122.5L900 124L900 0L878.5 0C857 0 814 0 771.2 0C728.3 0 685.7 0 642.8 0C600 0 557 0 514.2 0C471.3 0 428.7 0 385.8 0C343 0 300 0 257.2 0C214.3 0 171.7 0 128.8 0C86 0 43 0 21.5 0L0 0Z" fill="#070718"></path><path d="M0 65L21.5 67.8C43 70.7 86 76.3 128.8 79.3C171.7 82.3 214.3 82.7 257.2 78C300 73.3 343 63.7 385.8 57C428.7 50.3 471.3 46.7 514.2 47.7C557 48.7 600 54.3 642.8 56.7C685.7 59 728.3 58 771.2 56.5C814 55 857 53 878.5 52L900 51L900 0L878.5 0C857 0 814 0 771.2 0C728.3 0 685.7 0 642.8 0C600 0 557 0 514.2 0C471.3 0 428.7 0 385.8 0C343 0 300 0 257.2 0C214.3 0 171.7 0 128.8 0C86 0 43 0 21.5 0L0 0Z" fill="#08081a"></path></svg>